<svg xmlns="http://www.w3.org/2000/svg" width="244.477" height="61.787" viewBox="0 0 244.477 61.787">
  <path id="Path_1895" data-name="Path 1895" d="M40.3,0V-17.145q0-5.372-1.684-7.542t-5.33-2.171a7.4,7.4,0,0,0-5.817,2.895A10.857,10.857,0,0,0,25.021-16.7V0H22.46V-17.339q0-9.519-7.236-9.519a7.106,7.106,0,0,0-5.789,2.908,11.739,11.739,0,0,0-2.31,7.529V0H4.564V-28.5H7.125v4.731h.111Q10.214-29.2,15.948-29.2a8.191,8.191,0,0,1,5.33,1.8,8.826,8.826,0,0,1,2.992,4.718,10.909,10.909,0,0,1,3.827-4.8A9.366,9.366,0,0,1,33.51-29.2q9.352,0,9.352,11.578V0ZM58.364,5.817a16.938,16.938,0,0,1-3.451,5.706,6.646,6.646,0,0,1-4.871,1.865A5.958,5.958,0,0,1,47.815,13V10.437a6.43,6.43,0,0,0,2.338.39q3.423,0,5.4-4.731L58.2-.223,47.4-28.5h2.867l8.6,23.212q.278.751.39,1.141a8.633,8.633,0,0,0,.25.946h.111l.668-1.92L69.469-28.5h2.783ZM127.944,0h-9.8l-2.839-8.878H101.114L98.3,0H88.562L103.09-39.911h10.66Zm-14.7-15.781L108.962-29.2a17.482,17.482,0,0,1-.668-3.59h-.223a15.223,15.223,0,0,1-.7,3.479l-4.342,13.526Zm3.229-27.832h-16.31V-48.4h16.31ZM159.144,0h-8.767V-4.342h-.139Q146.981.7,141.526.7q-9.908,0-9.908-12V-28.5h8.767v16.421q0,6.04,4.787,6.04A4.735,4.735,0,0,0,148.957-7.7a6.678,6.678,0,0,0,1.419-4.495V-28.5h8.767Zm24.631-.334A13,13,0,0,1,177.9.7q-9.3,0-9.3-9.658V-22.015h-4.62V-28.5h4.62v-6.151l8.767-2.5V-28.5h6.4v6.485h-6.4v11.522q0,4.453,3.535,4.453a5.959,5.959,0,0,0,2.867-.807ZM205.762,0V-39.911h2.755V0Zm13,0V-39.911h9.992q9.936,0,15.113,4.954t5.177,14.445q0,9.129-5.552,14.821T228.167,0Zm2.755-37.378V-2.5h6.262q8.878,0,13.638-4.606t4.759-13.29q0-16.978-17.84-16.978Z" transform="translate(-4.564 48.4)" fill="#ebebf2"/>
</svg>
