<svg id="my_Āut_ID_Logo" data-name="my Āut ID Logo" xmlns="http://www.w3.org/2000/svg" width="411.75" height="104.063" viewBox="0 0 411.75 104.063">
  <path id="Path_1875" data-name="Path 1875" d="M67.875,0V-28.875q0-9.047-2.836-12.7t-8.977-3.656a12.465,12.465,0,0,0-9.8,4.875,18.285,18.285,0,0,0-4.125,12.234V0H37.828V-29.2q0-16.031-12.187-16.031a11.969,11.969,0,0,0-9.75,4.9Q12-35.437,12-27.656V0H7.688V-48H12v7.969h.188q5.016-9.141,14.672-9.141a13.8,13.8,0,0,1,8.977,3.023A14.864,14.864,0,0,1,40.875-38.2a18.372,18.372,0,0,1,6.445-8.086,15.774,15.774,0,0,1,9.117-2.883q15.75,0,15.75,19.5V0ZM98.3,9.8q-2.625,6.469-5.812,9.609a11.193,11.193,0,0,1-8.2,3.141,10.035,10.035,0,0,1-3.75-.656V17.578a10.829,10.829,0,0,0,3.938.656q5.766,0,9.094-7.969L98.016-.375,79.828-48h4.828L99.141-8.906q.469,1.266.656,1.922a14.54,14.54,0,0,0,.422,1.594h.188l1.125-3.234L117-48h4.688ZM215.484,0h-16.5L194.2-14.953H170.3L165.563,0H149.156l24.469-67.219h17.953Zm-24.75-26.578-7.219-22.594a29.443,29.443,0,0,1-1.125-6.047h-.375a25.639,25.639,0,0,1-1.172,5.859l-7.312,22.781Zm5.438-46.875H168.7v-8.062h27.469ZM268.031,0H253.266V-7.312h-.234q-5.484,8.484-14.672,8.484-16.687,0-16.687-20.2V-48h14.766v27.656q0,10.172,8.063,10.172a7.975,7.975,0,0,0,6.375-2.789,11.247,11.247,0,0,0,2.391-7.57V-48h14.766Zm41.484-.562q-3.281,1.734-9.891,1.734-15.656,0-15.656-16.266V-37.078h-7.781V-48h7.781V-58.359l14.766-4.219V-48h10.781v10.922H298.734v19.406q0,7.5,5.953,7.5a10.037,10.037,0,0,0,4.828-1.359ZM346.547,0V-67.219h4.641V0Zm21.891,0V-67.219h16.828q16.734,0,25.453,8.344t8.719,24.328q0,15.375-9.352,24.961T384.281,0Zm4.641-62.953V-4.219h10.547q14.953,0,22.969-7.758t8.016-22.383q0-28.594-30.047-28.594Z" transform="translate(-7.688 81.516)" fill="#ebebf2"/>
</svg>
