<svg xmlns="http://www.w3.org/2000/svg" width="21.643" height="17.002" viewBox="0 0 21.643 17.002">
  <g id="ios-redo" transform="translate(-32 -80.006)">
    <path id="Path_1848" data-name="Path 1848" d="M32,97.007h.14a.21.21,0,0,0,.2-.135,10.5,10.5,0,0,1,1.034-1.918,11.782,11.782,0,0,1,4.564-4.033,11.282,11.282,0,0,1,4.69-1.121.193.193,0,0,1,.2.193v3.941a.2.2,0,0,0,.3.164l10.428-6.868a.194.194,0,0,0,0-.324L43.124,80.039a.192.192,0,0,0-.3.164v3.99a.192.192,0,0,1-.184.193c-3.458.184-5.946,1.2-7.892,3.164A10.263,10.263,0,0,0,32,95.215C32,95.713,32,96.437,32,97.007Z" fill="#fff"/>
  </g>
</svg>
