<svg xmlns="http://www.w3.org/2000/svg" width="16" height="17.667" viewBox="0 0 16 17.667">
  <g id="md-share" transform="translate(-64 -44)">
    <path id="Path_1837" data-name="Path 1837" d="M77.326,56.518a2.429,2.429,0,0,0-1.738.666L69.214,53.5a2.209,2.209,0,0,0,0-1.243l6.284-3.64a2.667,2.667,0,1,0-.847-1.953,2.967,2.967,0,0,0,.089.622l-6.284,3.64a2.683,2.683,0,0,0-1.827-.71A2.639,2.639,0,0,0,64,52.878a2.683,2.683,0,0,0,4.5,1.953l6.329,3.684a2.227,2.227,0,0,0-.089.577,2.585,2.585,0,1,0,2.585-2.574Z" fill="#fff"/>
  </g>
</svg>
