<svg id="single-01" xmlns="http://www.w3.org/2000/svg" width="23.428" height="25.659" viewBox="0 0 23.428 25.659">
  <path id="Path_1689" data-name="Path 1689" d="M19.136,14.387a6.143,6.143,0,0,0,6.136-6.136V7.136A6.136,6.136,0,0,0,13,7.136V8.252A6.143,6.143,0,0,0,19.136,14.387Z" transform="translate(-7.422 -1)" fill="#fff"/>
  <path id="Path_1690" data-name="Path 1690" d="M23.236,30.219a30.4,30.4,0,0,0-17.044,0A4.436,4.436,0,0,0,3,34.5v3.985a.558.558,0,0,0,.558.558H25.87a.558.558,0,0,0,.558-.558V34.5A4.436,4.436,0,0,0,23.236,30.219Z" transform="translate(-3 -13.381)" fill="#fff"/>
</svg>